<svg preserveAspectRatio="none" width="100%" height="100%" overflow="visible" style="display: block;" viewBox="0 0 20 20" fill="none" xmlns="http://www.w3.org/2000/svg">
<g id="Icon">
<path id="Vector" d="M9.99209 18.3188C7.7837 18.3188 5.66576 17.4416 4.10419 15.88C2.54263 14.3184 1.66535 12.2005 1.66535 9.99209C1.66535 7.7837 2.54263 5.66576 4.10419 4.10419C5.66576 2.54263 7.7837 1.66535 9.99209 1.66535C12.2005 1.66535 14.3184 2.4549 15.88 3.86031C17.4416 5.26572 18.3188 7.17187 18.3188 9.15942C18.3188 10.2636 17.8802 11.3226 17.0994 12.1034C16.3186 12.8841 15.2597 13.3228 14.1555 13.3228H12.2819C12.0113 13.3228 11.7461 13.3981 11.5159 13.5404C11.2857 13.6827 11.0996 13.8863 10.9786 14.1283C10.8576 14.3703 10.8064 14.6413 10.8307 14.9108C10.855 15.1804 10.9538 15.4378 11.1162 15.6543L11.366 15.9873C11.5284 16.2038 11.6272 16.4613 11.6516 16.7308C11.6759 17.0003 11.6246 17.2713 11.5036 17.5133C11.3826 17.7554 11.1965 17.9589 10.9663 18.1012C10.7361 18.2435 10.4709 18.3188 10.2003 18.3188H9.99209Z" stroke="var(--stroke-0, white)" stroke-width="1.24901" stroke-linecap="round" stroke-linejoin="round"/>
<path id="Vector_2" d="M11.2411 5.82872C11.471 5.82872 11.6574 5.64232 11.6574 5.41238C11.6574 5.18245 11.471 4.99605 11.2411 4.99605C11.0112 4.99605 10.8248 5.18245 10.8248 5.41238C10.8248 5.64232 11.0112 5.82872 11.2411 5.82872Z" fill="var(--fill-0, white)" stroke="var(--stroke-0, white)" stroke-width="1.24901" stroke-linecap="round" stroke-linejoin="round"/>
<path id="Vector_3" d="M14.5718 9.15942C14.8017 9.15942 14.9881 8.97302 14.9881 8.74308C14.9881 8.51314 14.8017 8.32674 14.5718 8.32674C14.3419 8.32674 14.1555 8.51314 14.1555 8.74308C14.1555 8.97302 14.3419 9.15942 14.5718 9.15942Z" fill="var(--fill-0, white)" stroke="var(--stroke-0, white)" stroke-width="1.24901" stroke-linecap="round" stroke-linejoin="round"/>
<path id="Vector_4" d="M5.41238 10.8248C5.64232 10.8248 5.82872 10.6384 5.82872 10.4084C5.82872 10.1785 5.64232 9.99209 5.41238 9.99209C5.18245 9.99209 4.99605 10.1785 4.99605 10.4084C4.99605 10.6384 5.18245 10.8248 5.41238 10.8248Z" fill="var(--fill-0, white)" stroke="var(--stroke-0, white)" stroke-width="1.24901" stroke-linecap="round" stroke-linejoin="round"/>
<path id="Vector_5" d="M7.07773 6.66139C7.30767 6.66139 7.49407 6.47499 7.49407 6.24506C7.49407 6.01512 7.30767 5.82872 7.07773 5.82872C6.84779 5.82872 6.66139 6.01512 6.66139 6.24506C6.66139 6.47499 6.84779 6.66139 7.07773 6.66139Z" fill="var(--fill-0, white)" stroke="var(--stroke-0, white)" stroke-width="1.24901" stroke-linecap="round" stroke-linejoin="round"/>
</g>
</svg>
