<svg preserveAspectRatio="none" width="100%" height="100%" overflow="visible" style="display: block;" viewBox="0 0 28 28" fill="none" xmlns="http://www.w3.org/2000/svg">
<g id="Icon">
<path id="Vector" d="M18.6564 24.4865V22.1545C18.6564 20.9175 18.165 19.7312 17.2903 18.8565C16.4156 17.9818 15.2293 17.4904 13.9923 17.4904H6.99615C5.75916 17.4904 4.57282 17.9818 3.69813 18.8565C2.82345 19.7312 2.33205 20.9175 2.33205 22.1545V24.4865" stroke="var(--stroke-0, black)" stroke-width="1.74904" stroke-linecap="round" stroke-linejoin="round"/>
<path id="Vector_2" d="M18.6564 3.64732C19.6566 3.9066 20.5423 4.49066 21.1746 5.30781C21.807 6.12496 22.15 7.12894 22.15 8.16217C22.15 9.19539 21.807 10.1994 21.1746 11.0165C20.5423 11.8337 19.6566 12.4177 18.6564 12.677" stroke="var(--stroke-0, black)" stroke-width="1.74904" stroke-linecap="round" stroke-linejoin="round"/>
<path id="Vector_3" d="M25.6526 24.4865V22.1545C25.6518 21.1211 25.3078 20.1172 24.6747 19.3004C24.0415 18.4837 23.1551 17.9003 22.1545 17.642" stroke="var(--stroke-0, black)" stroke-width="1.74904" stroke-linecap="round" stroke-linejoin="round"/>
<path id="Vector_4" d="M10.4942 12.8263C13.0701 12.8263 15.1583 10.7381 15.1583 8.16218C15.1583 5.58626 13.0701 3.49808 10.4942 3.49808C7.91832 3.49808 5.83013 5.58626 5.83013 8.16218C5.83013 10.7381 7.91832 12.8263 10.4942 12.8263Z" stroke="var(--stroke-0, black)" stroke-width="1.74904" stroke-linecap="round" stroke-linejoin="round"/>
</g>
</svg>
