<svg preserveAspectRatio="none" width="100%" height="100%" overflow="visible" style="display: block;" viewBox="0 0 28 28" fill="none" xmlns="http://www.w3.org/2000/svg">
<g id="Icon">
<path id="Vector" d="M11.6603 17.0939V18.9899C11.6558 19.3894 11.5489 19.781 11.3496 20.1273C11.1503 20.4736 10.8654 20.7629 10.5222 20.9674C9.79361 21.5071 9.20092 22.2092 8.79123 23.0181C8.38154 23.8269 8.16615 24.7202 8.16218 25.6269" stroke="var(--stroke-0, black)" stroke-width="1.74904" stroke-linecap="round" stroke-linejoin="round"/>
<path id="Vector_2" d="M16.3244 17.0939V18.9899C16.3288 19.3894 16.4357 19.781 16.635 20.1273C16.8343 20.4736 17.1192 20.7629 17.4624 20.9674C18.191 21.5071 18.7837 22.2092 19.1934 23.0181C19.6031 23.8269 19.8185 24.7202 19.8224 25.6269" stroke="var(--stroke-0, black)" stroke-width="1.74904" stroke-linecap="round" stroke-linejoin="round"/>
<path id="Vector_3" d="M20.9885 10.4942H22.7375C23.5106 10.4942 24.2521 10.1871 24.7988 9.64043C25.3454 9.09374 25.6526 8.35229 25.6526 7.57916C25.6526 6.80604 25.3454 6.06458 24.7988 5.5179C24.2521 4.97122 23.5106 4.6641 22.7375 4.6641H20.9885" stroke="var(--stroke-0, black)" stroke-width="1.74904" stroke-linecap="round" stroke-linejoin="round"/>
<path id="Vector_4" d="M4.6641 25.6526H23.3205" stroke="var(--stroke-0, black)" stroke-width="1.74904" stroke-linecap="round" stroke-linejoin="round"/>
<path id="Vector_5" d="M6.99615 10.4942C6.99615 12.3497 7.73324 14.1292 9.04528 15.4413C10.3573 16.7533 12.1368 17.4904 13.9923 17.4904C15.8478 17.4904 17.6273 16.7533 18.9393 15.4413C20.2514 14.1292 20.9885 12.3497 20.9885 10.4942V3.49808C20.9885 3.18883 20.8656 2.89224 20.6469 2.67357C20.4283 2.4549 20.1317 2.33205 19.8224 2.33205H8.16218C7.85293 2.33205 7.55634 2.4549 7.33767 2.67357C7.119 2.89224 6.99615 3.18883 6.99615 3.49808V10.4942Z" stroke="var(--stroke-0, black)" stroke-width="1.74904" stroke-linecap="round" stroke-linejoin="round"/>
<path id="Vector_6" d="M6.99615 10.4942H5.24711C4.47399 10.4942 3.73253 10.1871 3.18585 9.64043C2.63917 9.09374 2.33205 8.35229 2.33205 7.57916C2.33205 6.80604 2.63917 6.06458 3.18585 5.5179C3.73253 4.97122 4.47399 4.6641 5.24711 4.6641H6.99615" stroke="var(--stroke-0, black)" stroke-width="1.74904" stroke-linecap="round" stroke-linejoin="round"/>
</g>
</svg>
