<svg preserveAspectRatio="none" width="100%" height="100%" overflow="visible" style="display: block;" viewBox="0 0 17 17" fill="none" xmlns="http://www.w3.org/2000/svg">
<path id="Vector" d="M0.833333 8.33334C0.833333 9.8167 1.2732 11.2667 2.09731 12.5001C2.92142 13.7335 4.09276 14.6948 5.46321 15.2624C6.83365 15.8301 8.34165 15.9786 9.79651 15.6892C11.2514 15.3998 12.5877 14.6855 13.6366 13.6366C14.6855 12.5877 15.3998 11.2514 15.6892 9.79652C15.9786 8.34166 15.8301 6.83366 15.2624 5.46321C14.6948 4.09277 13.7335 2.92143 12.5001 2.09732C11.2667 1.27321 9.81669 0.833339 8.33333 0.833339C6.23663 0.841227 4.22414 1.65936 2.71667 3.11667L0.833333 5.00001" stroke="var(--stroke-0, #4A5565)" stroke-width="1.66667" stroke-linecap="round" stroke-linejoin="round"/>
</svg>
